<svg width="87" height="88" viewBox="0 0 87 88" fill="none" xmlns="http://www.w3.org/2000/svg">
<path d="M40.8662 0.171875C36.941 0.790627 33.2197 2.68125 30.416 5.46562L29.0566 6.82343L27.4764 7.0125C20.1697 7.92344 14.2904 12.7188 12.0814 19.525C10.824 23.4094 10.926 26.8469 12.4383 31.4359C14.9021 38.9469 19.9148 45.3578 27.0685 50.1359L28.7338 51.2531L27.8672 52.8687C26.168 56.0484 25.0635 59.7094 24.8596 62.7344C24.7236 64.9516 25.0975 66.7734 26.117 68.9219C26.7627 70.2969 27.1195 70.7953 28.36 72.0328C29.5494 73.2359 30.1101 73.6484 31.4185 74.3016C32.2852 74.7484 33.1008 75.1094 33.2197 75.1094C33.3387 75.1094 33.5935 75.3672 33.7975 75.6594C33.9844 75.9688 34.4771 76.5703 34.9019 77C35.4287 77.4984 35.6836 77.9109 35.6836 78.2031C35.6836 78.4437 35.5137 80.0078 35.3098 81.6922C34.9699 84.4937 34.9699 84.7859 35.2078 85.3016C35.8195 86.5734 40.1016 88 43.3471 88C46.9324 88 51.2144 86.5734 51.8432 85.1812C51.9791 84.9062 51.9111 83.8922 51.6053 81.3656L51.1805 77.9453L52.149 76.9141C52.6928 76.3469 53.2195 75.7109 53.3385 75.4875C53.4404 75.2812 53.6443 75.1094 53.7633 75.1094C53.8992 75.1094 54.7148 74.7484 55.5814 74.3016C56.8898 73.6484 57.4506 73.2359 58.64 72.0328C59.8805 70.7953 60.2373 70.2969 60.883 68.9219C61.9025 66.7734 62.2764 64.9516 62.1234 62.7344C61.9365 59.675 60.832 56.0484 59.1328 52.8687L58.2662 51.2359L59.9314 50.1359C66.9322 45.5297 72.0978 38.9297 74.5617 31.4359C75.5303 28.4797 75.8531 26.5031 75.7342 24.1484C75.2924 15.2281 68.5805 8.14687 59.5236 7.0125L57.9264 6.82343L56.618 5.5C54.0521 2.92188 50.8916 1.18594 47.3232 0.412498C45.8789 0.0859375 42.2596 -0.0343781 40.8662 0.171875ZM47.3232 3.95312C52.6588 5.34531 56.9068 9.65937 58.2832 15.0391C59.2178 18.6828 58.742 24.4062 57.0767 29.4766C55.5814 34.0484 53.0326 38.3625 49.4982 42.3672L48.5976 43.3812V40.1156V36.8672L50.6537 34.8047C53.9502 31.5047 54.2221 30.9203 53.1176 29.8031C52.132 28.8062 51.5203 28.9781 49.6851 30.8L48.4787 32.0031L48.3428 30.7312C48.2918 30.0437 48.1389 28.9781 48.0369 28.3766L47.833 27.2766L50.2799 24.8531C53.9672 21.1922 54.256 20.6422 53.1176 19.4906C52.5059 18.8719 51.9281 18.7516 51.2654 19.0953C51.0615 19.1984 49.957 20.2125 48.8355 21.3469L46.7625 23.4094L45.8789 20.7109C45.3861 19.2156 44.8424 17.8578 44.6725 17.6859C44.0437 17.05 42.9562 17.05 42.3275 17.6859C42.1576 17.8578 41.6139 19.2156 41.1211 20.6937L40.2375 23.3922L38.0625 21.2438C36.856 20.0406 35.7006 19.0437 35.4627 18.975C34.1713 18.6656 33.0668 19.7828 33.3896 21.0891C33.4576 21.3812 34.5791 22.6703 36.3123 24.4406L39.116 27.2937L38.8441 29.1844C38.6912 30.2328 38.5723 31.2984 38.5723 31.5562C38.5723 31.9859 38.4873 31.9344 37.2129 30.7141C36.4822 29.9922 35.6666 29.3562 35.4287 29.2875C34.1713 28.9781 33.0668 30.1125 33.3896 31.4016C33.4576 31.6937 34.4771 32.8797 35.9555 34.3922L38.4023 36.8844L38.3684 40.1156L38.3174 43.3469L36.8221 41.5766C33.7295 37.9156 31.2996 33.6531 29.9232 29.4766C28.258 24.4062 27.7822 18.6828 28.7168 15.0391C30.1951 9.26406 34.9019 4.8125 40.7473 3.69531C42.5144 3.35156 45.5391 3.47187 47.3232 3.95312ZM26.151 11.9453C25.1144 14.6266 24.8935 15.9328 24.9105 19.4219C24.9275 26.2109 26.6268 32.2094 30.2121 38.225C31.0447 39.6344 31.4355 40.4594 31.4355 40.8203C31.4355 41.9891 30.2971 47.4547 29.9742 47.7641C29.7703 47.9703 27.1875 46.1484 24.8256 44.0859C20.8324 40.6312 17.451 35.6297 15.7348 30.6109C14.8512 28.05 14.5453 26.2281 14.6643 24.1484C15.0211 18.1156 18.8953 13.1484 24.8426 11.0859C26.7287 10.4328 26.7287 10.4328 26.151 11.9453ZM61.9535 11.0172C65.9297 12.2547 69.2092 15.1078 70.9594 18.8203C72.6926 22.5156 72.8285 25.7641 71.4351 30.0781C69.7359 35.3031 66.1676 40.7 62.0385 44.2578C60.3902 45.6672 57.4846 47.7812 57.1787 47.7812C56.8219 47.7812 55.8363 43.6734 55.6324 41.4562L55.5305 40.3047L56.7709 38.2422C60.3562 32.2609 62.0725 26.2281 62.0894 19.4219C62.1064 15.9328 61.8855 14.6266 60.849 11.9453C60.5092 11.0344 60.4242 10.6562 60.5771 10.6562C60.6961 10.6562 61.3248 10.8281 61.9535 11.0172ZM43.9758 25.9016C44.9953 29.7344 45.1992 31.8828 45.1992 38.8266C45.1992 41.9375 45.2842 45.2719 45.3861 46.2516C45.8279 50.6172 47.0174 54.7938 48.9545 58.7812C50.5518 62.0812 51.2314 63.8687 51.6392 65.9484C52.217 68.7672 52.0471 70.5547 51.0275 72.7031C50.4498 73.9234 48.6146 75.7797 47.4082 76.3641C43.8908 78.0656 40.2545 77.4812 37.5527 74.7828C35.3268 72.5484 34.5961 69.9016 35.2588 66.3609C35.7006 64.0578 36.1424 62.8203 37.8076 59.2969C39.7957 55.1031 40.6283 52.5594 41.308 48.7266C41.6309 46.9047 41.6988 45.7359 41.8008 38.9297C41.9367 30.6797 42.0217 29.6828 42.9393 26.2453C43.1771 25.3344 43.432 24.5781 43.5 24.5781C43.568 24.5781 43.7719 25.1797 43.9758 25.9016ZM36.2953 46.0625L38.0285 47.8672L37.6887 49.5C37.1789 52.0438 36.1424 54.9828 34.681 57.9906C32.4721 62.5453 31.7244 65.1406 31.7074 68.4406C31.6904 69.5578 31.6394 70.4688 31.5885 70.4688C31.2656 70.4688 29.5154 68.2687 29.0906 67.3234C28.173 65.3813 28.0031 63.6797 28.4619 61.2047C28.9037 58.9016 29.3455 57.6641 31.0107 54.1406C32.608 50.7547 33.7805 47.4719 34.1713 45.3234C34.2902 44.6875 34.4262 44.1891 34.4771 44.2062C34.5281 44.2406 35.3607 45.0656 36.2953 46.0625ZM52.8967 45.5812C53.3725 47.9703 54.341 50.6344 55.9043 53.9688C57.6035 57.5609 58.1642 59.0906 58.5381 61.2562C58.9799 63.8687 58.793 65.5016 57.8414 67.5125C57.4506 68.3203 55.7004 70.4688 55.4115 70.4688C55.3605 70.4688 55.2926 69.5578 55.2926 68.4406C55.2586 65.1062 54.5279 62.5281 52.3189 57.9906C50.8576 54.9828 49.8211 52.0438 49.3113 49.5L48.9715 47.8672L50.7047 46.0453C51.6392 45.0312 52.4549 44.2062 52.5059 44.1891C52.5568 44.1719 52.7267 44.8078 52.8967 45.5812ZM40.4924 80.3859C42.4295 80.9359 45.8789 80.7469 47.799 79.9906C47.9859 79.9219 48.0709 80.1797 48.1558 81.0734C48.2238 81.7094 48.3258 82.5516 48.3768 82.9297L48.4617 83.6344L47.5611 83.9094C45.1312 84.6828 42.1576 84.7344 39.8297 84.0297C38.4023 83.6 38.4703 83.7719 38.7592 81.4344C38.9121 80.2484 39.0141 79.9219 39.201 79.9906C39.3199 80.0422 39.9146 80.2141 40.4924 80.3859Z" fill="#53C351"/>
</svg>
