<svg width="22" height="22" viewBox="0 0 22 22" fill="none" xmlns="http://www.w3.org/2000/svg">
<path d="M18.4244 0.827026H3.33728C1.80024 0.827026 0.554169 2.07305 0.554169 3.61013V18.6974C0.554169 20.2345 1.80019 21.4805 3.33728 21.4805H10.7782L10.7909 14.1H8.87343C8.62424 14.1 8.422 13.8986 8.42104 13.6494L8.41184 11.2704C8.41088 11.0198 8.61374 10.8162 8.86428 10.8162H10.7782V8.51747C10.7782 5.84981 12.4075 4.39724 14.7872 4.39724H16.7399C16.9898 4.39724 17.1924 4.59979 17.1924 4.84969V6.85568C17.1924 7.10547 16.9899 7.30797 16.7402 7.30813L15.5418 7.30868C14.2476 7.30868 13.9971 7.92366 13.9971 8.82617V10.8162H16.8408C17.1117 10.8162 17.322 11.0529 17.29 11.3219L17.0081 13.701C16.9811 13.9286 16.788 14.1001 16.5588 14.1001H14.0097L13.9971 21.4806H18.4245C19.9615 21.4806 21.2076 20.2346 21.2076 18.6975V3.61013C21.2075 2.07305 19.9615 0.827026 18.4244 0.827026Z" fill="#808080"/>
</svg>
