<svg width="23" height="23" viewBox="0 0 23 23" fill="none" xmlns="http://www.w3.org/2000/svg">
<path d="M16.0289 0.397949H7.03333C3.37746 0.397949 0.403198 3.37221 0.403198 7.02809V16.0237C0.403198 19.6795 3.37746 22.6538 7.03333 22.6538H16.0289C19.6848 22.6538 22.659 19.6795 22.659 16.0237V7.02809C22.659 3.37221 19.6847 0.397949 16.0289 0.397949ZM20.4201 16.0237C20.4201 18.4488 18.4541 20.4149 16.0289 20.4149H7.03333C4.60816 20.4149 2.64214 18.4488 2.64214 16.0237V7.02809C2.64214 4.60287 4.60816 2.63689 7.03333 2.63689H16.0289C18.4541 2.63689 20.4201 4.60287 20.4201 7.02809V16.0237Z" fill="#808080"/>
<path d="M11.5311 5.76978C8.35717 5.76978 5.77496 8.35198 5.77496 11.5259C5.77496 14.6998 8.35717 17.282 11.5311 17.282C14.7051 17.282 17.2873 14.6998 17.2873 11.5259C17.2873 8.35194 14.7051 5.76978 11.5311 5.76978ZM11.5311 15.0431C9.5886 15.0431 8.0139 13.4684 8.0139 11.5259C8.0139 9.58341 9.58864 8.00871 11.5311 8.00871C13.4736 8.00871 15.0483 9.58341 15.0483 11.5259C15.0483 13.4684 13.4736 15.0431 11.5311 15.0431Z" fill="#808080"/>
<path d="M17.2984 7.19218C18.0602 7.19218 18.6777 6.57465 18.6777 5.81289C18.6777 5.05112 18.0602 4.43359 17.2984 4.43359C16.5367 4.43359 15.9191 5.05112 15.9191 5.81289C15.9191 6.57465 16.5367 7.19218 17.2984 7.19218Z" fill="#808080"/>
</svg>
