<svg width="82" height="88" viewBox="0 0 82 88" fill="none" xmlns="http://www.w3.org/2000/svg">
<g clip-path="url(#clip0_102_6)">
<path d="M39.2062 0.171867C35.7949 0.842178 32.784 3.11093 31.1664 6.23905C30.5898 7.35624 29.9492 9.36718 29.9492 10.0719C29.9492 10.3641 29.8211 10.5359 29.5328 10.6562C28.652 11.0172 28.4277 10.8969 27.8672 9.71093C26.7941 7.44218 24.9844 5.53437 22.8383 4.41718C21.1566 3.52343 19.8914 3.21406 17.9375 3.19687C15.9195 3.19687 14.7184 3.50624 12.8125 4.50312C11.7234 5.0703 11.1789 5.49999 10.0738 6.68593C7.81562 9.14375 6.72656 11.9109 6.72656 15.2797C6.72656 16.1906 6.79062 17.1703 6.8707 17.4625C7.01484 18.0125 7.01484 18.0125 5.8457 18.6484C2.33828 20.5562 0 24.8359 0 29.3219C0 32.2781 1.15312 35.4062 3.04297 37.5031L4.14805 38.7406L3.65156 39.3422C-0.464453 44.3609 0.448437 51.5969 5.79766 56.4781C6.34219 56.9766 8.10391 58.1797 9.68945 59.1594C20.3238 65.6219 25.7051 69.7641 28.9883 74.0266C30.5578 76.0547 31.2945 77.55 31.5348 79.2C32.1914 83.7031 34.9941 86.8828 39.0781 87.7594C42.0891 88.3953 45.2121 87.5187 47.4543 85.4219C48.9758 83.9781 50.241 81.2797 50.5293 78.8906C50.8176 76.5531 53.0277 73.425 56.8234 70.0219C60.491 66.7391 65.0715 63.5078 71.9582 59.3828C75.2094 57.4406 76.5387 56.375 77.932 54.6391C81.7438 49.8781 81.9199 43.6906 78.3484 39.3422L77.852 38.7406L78.957 37.5031C80.8469 35.3891 82 32.2781 82 29.3047C82 24.8359 79.5977 20.4703 76.1383 18.6312L75.0012 18.0125L75.1293 17.3937C75.3855 16.2422 75.2895 13.7156 74.9531 12.3062C74.4406 10.1234 73.4957 8.38749 71.9262 6.70312C70.4047 5.0703 69.1555 4.26249 67.1055 3.59218C65.6 3.09374 63.0855 3.04218 61.5 3.48905C58.2168 4.41718 55.318 6.90937 54.0207 9.91718C53.6043 10.8969 53.332 11.0172 52.4672 10.6562C52.1629 10.5359 52.0508 10.3641 52.0508 10.0547C52.0508 9.24686 51.25 6.99531 50.5293 5.74062C49.6965 4.31406 47.8387 2.35468 46.5895 1.59843C45.084 0.670303 43.4023 0.154678 41.5766 0.0859299C40.6957 0.0515518 39.6227 0.0859299 39.2062 0.171867ZM43.6266 3.95312C46.8297 5.13905 49.0078 8.45625 49.0078 12.1172C49.0078 12.9078 49.0879 13.1484 49.4723 13.6125C49.9207 14.1625 49.9367 14.1625 51.5863 14.1969C52.4992 14.1969 53.5723 14.3172 53.9727 14.4203C55.7504 14.9531 57.4961 16.3625 58.5051 18.0812C60.443 21.3812 60.2348 25.1969 57.9445 28.2562C57.1117 29.3562 56.9996 29.9062 57.416 30.7656C57.5762 31.0922 57.8965 31.35 58.409 31.5391C61.3238 32.6734 62.7332 33.8422 63.6301 35.8875C64.0625 36.8844 64.1426 37.2625 64.1906 38.775C64.2707 40.8031 64.0145 42.0922 63.1656 43.9312C62.6051 45.1516 62.0125 45.9937 59.2418 49.5172C51.266 59.6922 47.9508 67.3234 47.4223 76.7422C47.3422 78.2031 47.166 79.6297 47.0379 80.025C46.4613 81.7094 45.148 83.2391 43.5945 84.0125C42.7938 84.425 42.4895 84.4766 41 84.4766C39.5105 84.4766 39.2062 84.425 38.4055 84.0125C37.3324 83.4797 36.0512 82.2422 35.4746 81.2109C34.9301 80.1969 34.5938 78.7016 34.5938 77.2406C34.5938 74.0094 33.6969 69.3172 32.4156 65.8281C30.3336 60.2078 27.2906 55.2234 21.4289 47.8156C19.5391 45.4437 18.8664 44.3266 18.3059 42.6594C17.7453 41.0781 17.6172 38.5859 18.0176 37.0219C18.5941 34.7016 20.2598 32.8109 22.4379 31.9859C22.9984 31.7625 23.6711 31.5047 23.9113 31.4187C24.1516 31.3156 24.4559 31.0234 24.584 30.7484C24.9844 29.9234 24.8883 29.3391 24.1836 28.4281C22.7902 26.6234 22.2137 24.9906 22.2137 22.8594C22.2137 20.5562 23.0785 18.2703 24.552 16.7062C26.2977 14.8672 28.2836 14.0422 30.766 14.1281C32.0473 14.1797 32.0633 14.1797 32.5277 13.6125C32.9121 13.1484 32.9922 12.9078 32.9922 12.1172C32.9922 7.97499 35.6187 4.5203 39.4785 3.60937C40.4555 3.36874 42.5695 3.54062 43.6266 3.95312ZM19.459 6.78905C21.7332 7.30468 23.8312 8.9203 24.8562 10.9312L25.2887 11.7734L23.9754 12.7187C20.8684 14.9703 19.0586 18.7 19.0586 22.8766C19.0586 24.9562 19.2508 26.0219 19.9555 27.6547C20.2598 28.3594 20.5 28.9781 20.5 29.0297C20.5 29.0812 20.0836 29.3562 19.5711 29.6484C18.1777 30.4219 16.352 32.4844 15.6473 34.0484C14.7664 35.9906 14.5262 37.3484 14.6223 39.7891C14.6703 41.525 14.7664 42.1094 15.1988 43.4844C15.9836 45.9937 16.5922 47.025 18.9465 49.9984C23.6551 55.9109 26.3937 60.1219 28.3637 64.5391C29.1805 66.3953 30.4297 69.8672 30.4297 70.3312C30.4297 70.4344 29.8371 69.9016 29.1164 69.1625C25.593 65.5359 20.4199 61.7375 12.4121 56.8906C8.88867 54.7594 8.45625 54.45 7.19102 53.1094C5.04492 50.8406 4.21211 48.7266 4.35625 45.9422C4.48438 43.6047 5.31719 42.1437 7.81562 39.8578C8.39219 39.325 8.48828 39.1531 8.48828 38.5687C8.48828 37.675 8.2 37.2797 7.12695 36.6266C3.71562 34.5641 2.2582 29.8719 3.7957 25.8672C4.22813 24.7328 5.38125 23.1 6.23008 22.4469C7.07891 21.7766 8.42422 21.0891 9.24102 20.9C9.92969 20.7281 10.5703 19.9031 10.5703 19.1984C10.5543 18.8891 10.4262 18.2187 10.25 17.7031C9.86562 16.5516 9.83359 14.4203 10.1699 13.0797C11.0027 9.72812 13.4691 7.2703 16.5762 6.72031C17.7773 6.49686 18.2258 6.51405 19.459 6.78905ZM66.673 7.06406C69.2195 7.97499 71.1254 10.2094 71.8301 13.0797C72.1664 14.4203 72.1344 16.5516 71.75 17.7031C71.5738 18.2187 71.4457 18.8891 71.4297 19.1984C71.4297 19.9891 72.0543 20.7109 72.9832 20.9687C75.0012 21.5016 76.923 23.1859 77.884 25.2484C78.6207 26.8125 78.8609 28.1016 78.7488 29.8203C78.5727 32.5703 77.4035 34.8219 75.4336 36.1969C73.768 37.3656 73.5117 37.675 73.5117 38.5172C73.5117 39.1703 73.5918 39.325 74.2645 39.9437C75.7379 41.3016 76.5547 42.3328 77.0672 43.45C77.5797 44.55 77.5957 44.6875 77.5957 46.5953V48.5891L76.891 50.1187C76.3145 51.3734 75.9461 51.9062 74.809 53.1094C73.6238 54.3641 73.0633 54.7937 70.8691 56.1C61.8363 61.5141 56.4871 65.4328 52.6594 69.4203C52.0508 70.0391 51.5703 70.4516 51.5703 70.3484C51.5703 69.7984 52.8355 66.3094 53.7965 64.1953C55.6062 60.2422 58.0406 56.4266 61.7562 51.6656C64.607 48.0391 65.1516 47.2484 65.8883 45.7187C66.9773 43.4672 67.2816 42.1953 67.3777 39.7031C67.4578 37.8469 67.4098 37.3656 67.1215 36.1797C66.9293 35.4234 66.5129 34.3062 66.1926 33.6875C65.4879 32.3125 63.6461 30.3359 62.4609 29.6656C61.9805 29.3906 61.548 29.1328 61.516 29.1156C61.484 29.0812 61.6762 28.5312 61.9484 27.8953C62.6852 26.1594 62.9414 24.9047 62.9414 22.9281C62.9414 18.7172 61.1316 14.9703 58.0246 12.7187L56.7273 11.7906L56.9676 11.2578C57.448 10.2266 58.473 8.97187 59.402 8.28437C61.6281 6.59999 64.2066 6.1703 66.673 7.06406Z" fill="#53C351"/>
<path d="M40.1512 11.0172C39.4144 11.4813 39.3984 11.6875 39.3984 20.4359V28.6859L36.0992 25.6953C32.9441 22.825 32.768 22.6875 32.1113 22.6875C31.5348 22.6875 31.3426 22.7734 31.0062 23.2203C30.4617 23.9078 30.4457 24.8703 30.9582 25.4547C31.1504 25.6781 33.1363 27.5172 35.3625 29.5453L39.3984 33.2234V41.4562V49.6891L39.0301 49.3797C38.8219 49.2078 36.3715 46.9734 33.5687 44.4297C30.766 41.8688 28.3156 39.7203 28.1394 39.6516C27.5949 39.4281 26.7941 39.6688 26.4258 40.1672C25.9133 40.8719 25.9933 41.8172 26.634 42.5219C26.9062 42.8484 29.8851 45.6156 33.2324 48.6578L39.3183 54.1922L39.3984 66.3781L39.4785 78.5812L39.9269 78.9937C40.4074 79.4406 41.2562 79.5437 41.8168 79.2344C42.6015 78.7703 42.6015 78.9078 42.6015 66.1375L42.6176 54.2266L48.9437 48.4688C52.4351 45.3062 55.4301 42.5219 55.5902 42.2984C55.9906 41.7484 55.9906 40.7344 55.5742 40.1672C55.2058 39.6688 54.4051 39.4281 53.8605 39.6516C53.6683 39.7203 51.234 41.8688 48.4473 44.4125C45.6605 46.9562 43.2101 49.1906 43.0019 49.3625L42.6015 49.6891V41.4562V33.2234L46.6375 29.5453C48.8637 27.5172 50.8496 25.6781 51.0418 25.4547C51.9387 24.4406 51.1699 22.6875 49.8406 22.6875C49.248 22.6875 48.9758 22.9109 45.9008 25.6953L42.6015 28.7031V20.4359C42.6015 11.6188 42.5855 11.4469 41.8168 11C41.4164 10.7766 40.5195 10.7938 40.1512 11.0172Z" fill="#53C351"/>
</g>
<defs>
<clipPath id="clip0_102_6">
<rect width="82" height="88" fill="white"/>
</clipPath>
</defs>
</svg>
