<svg width="34" height="29" viewBox="0 0 34 29" fill="none" xmlns="http://www.w3.org/2000/svg">
<path d="M14.6737 4.03928C8.44034 5.48928 4.32455 11.1339 5.36841 16.8821C5.72631 18.9536 6.02455 19.6009 7.51578 21.5429C10.3789 25.2714 15.4491 27.0839 20.907 26.2812C23.4421 25.9187 25.321 25.0902 27.4088 23.4071C30.6596 20.8179 32.0614 17.2446 31.4053 13.3348C30.2719 6.47321 22.5474 2.20089 14.6737 4.03928ZM21.5632 8.51874C21.6526 8.93303 22.1596 9.63214 22.6965 10.0723C23.2035 10.5384 24.0088 10.9786 24.486 11.0562C25.321 11.1857 25.3509 11.2634 25.3509 12.6098V14.0339L24.3965 13.8527C23.8596 13.7491 22.9649 13.4643 22.4579 13.1795L21.4737 12.7134V15.5616C21.4737 18.7464 21.1158 19.808 19.5947 21.1804C18.0439 22.5786 15.9263 22.8634 13.8088 21.983C10.1403 20.4554 10.0807 15.6393 13.7193 14.0339C14.4351 13.7232 15.4193 13.4643 15.8965 13.4643C16.7017 13.4643 16.7316 13.5161 16.6421 14.5518C16.5526 15.5098 16.4632 15.6652 15.5386 15.9241C15.0017 16.0795 14.3754 16.4161 14.1368 16.7009C13.0632 17.9437 14.1965 19.9375 15.9561 19.9375C18.5807 19.9375 18.7895 19.4196 18.7895 12.9464V7.76785H20.1017C21.2947 7.76785 21.414 7.81964 21.5632 8.51874Z" fill="#808080"/>
</svg>
